<svg version="1.0" xmlns="http://www.w3.org/2000/svg"
 width="379.000000pt" height="329.000000pt" viewBox="0 0 379.000000 329.000000"
 preserveAspectRatio="xMidYMid meet">

<g transform="translate(0.000000,329.000000) scale(0.100000,-0.100000)"
fill="#000000" stroke="none">
<path d="M224 3270 c-32 -13 -54 -50 -54 -89 0 -32 14 -50 158 -193 l158 -158
1623 0 1623 0 29 29 c20 20 29 39 29 61 0 33 -16 52 -200 243 -126 132 93 117
-1747 116 -879 0 -1608 -4 -1619 -9z"/>
<path d="M41 3092 l-28 -27 -6 -1335 c-5 -954 -4 -1346 4 -1375 9 -32 42 -71
163 -192 142 -144 154 -153 190 -153 28 0 45 7 67 29 l29 29 0 1357 c0 973 -3
1362 -11 1378 -16 31 -269 286 -301 303 -41 22 -76 17 -107 -14z"/>
<path d="M999 2271 l-29 -29 0 -932 0 -932 29 -29 29 -29 442 0 442 0 29 29
29 29 0 930 0 930 -26 31 -26 31 -445 0 -445 0 -29 -29z"/>
<path d="M2503 2276 l-28 -24 -3 -419 c-2 -282 0 -430 8 -455 20 -68 17 -68
490 -68 465 0 468 0 489 61 7 21 11 167 11 441 0 436 -2 452 -49 478 -13 6
-175 10 -455 10 l-435 0 -28 -24z"/>
</g>
</svg>
