<svg
            version="1.1"
            id="Capa_1"
            xmlns="http://www.w3.org/2000/svg"
            xmlnsXlink="http://www.w3.org/1999/xlink"
            x="0px"
            y="0px"
            viewBox="0 0 110.6 96.4"
            style='new 0 0 110.6 96.4'
            xmlSpace="preserve"
            height="95px"
            width="100%"
            fill="#AD182E"
        >
            <g>
                <path className="st0" d="M39,76.5c0-2.8-2.3-5-5-5c-2.8,0-5,2.3-5,5s2.2,5,5,5C36.8,81.5,39,79.3,39,76.5" />
                <path className="st0" d="M53.2,76.5c0-2.8-2.3-5-5-5s-5,2.3-5,5s2.2,5,5,5C51,81.5,53.2,79.3,53.2,76.5" />
                <path className="st0" d="M67.4,76.5c0-2.8-2.3-5-5-5s-5,2.3-5,5s2.2,5,5,5C65.1,81.5,67.4,79.3,67.4,76.5" />
                <path className="st0" d="M81.5,76.5c0-2.8-2.3-5-5-5s-5,2.3-5,5s2.2,5,5,5C79.3,81.5,81.5,79.3,81.5,76.5" />
                <path className="st0" d="M24.8,76.5c0-2.8-2.3-5-5-5s-5,2.3-5,5s2.2,5,5,5C22.6,81.5,24.8,79.3,24.8,76.5" />
                <path className="st0" d="M39,62.4c0-2.8-2.3-5-5-5c-2.8,0-5,2.3-5,5s2.2,5,5,5C36.8,67.4,39,65.1,39,62.4" />
                <path className="st0" d="M53.2,62.4c0-2.8-2.3-5-5-5s-5,2.3-5,5s2.2,5,5,5C51,67.4,53.2,65.1,53.2,62.4" />
                <path className="st0" d="M67.4,62.4c0-2.8-2.3-5-5-5s-5,2.3-5,5s2.2,5,5,5C65.1,67.4,67.4,65.1,67.4,62.4" />
                <path className="st0" d="M81.5,62.4c0-2.8-2.3-5-5-5s-5,2.3-5,5s2.2,5,5,5C79.3,67.4,81.5,65.1,81.5,62.4" />
                <path className="st0" d="M24.8,62.4c0-2.8-2.3-5-5-5s-5,2.3-5,5s2.2,5,5,5S24.8,65.1,24.8,62.4" />
                <path className="st0" d="M39,90.7c0-2.8-2.3-5-5-5c-2.8,0-5,2.3-5,5c0,2.8,2.2,5,5,5C36.8,95.7,39,93.4,39,90.7" />
                <path className="st0" d="M53.2,90.7c0-2.8-2.3-5-5-5s-5,2.3-5,5c0,2.8,2.2,5,5,5C51,95.7,53.2,93.4,53.2,90.7" />
                <path className="st0" d="M67.4,90.7c0-2.8-2.3-5-5-5s-5,2.3-5,5c0,2.8,2.2,5,5,5C65.1,95.7,67.4,93.4,67.4,90.7" />
                <path className="st0" d="M81.5,90.7c0-2.8-2.3-5-5-5s-5,2.3-5,5c0,2.8,2.2,5,5,5C79.3,95.7,81.5,93.4,81.5,90.7" />
                <path className="st0" d="M24.8,90.7c0-2.8-2.3-5-5-5s-5,2.3-5,5c0,2.8,2.2,5,5,5C22.6,95.7,24.8,93.4,24.8,90.7" />
                <path className="st0" d="M39,48.2c0-2.8-2.3-5-5-5c-2.8,0-5,2.2-5,5c0,2.8,2.2,5,5,5C36.8,53.2,39,51,39,48.2" />
                <path className="st0" d="M53.2,48.2c0-2.8-2.3-5-5-5s-5,2.2-5,5c0,2.8,2.2,5,5,5C51,53.2,53.2,51,53.2,48.2" />
                <path className="st0" d="M67.4,48.2c0-2.8-2.3-5-5-5s-5,2.2-5,5c0,2.8,2.2,5,5,5C65.1,53.2,67.4,51,67.4,48.2" />
                <path className="st0" d="M81.5,48.2c0-2.8-2.3-5-5-5s-5,2.2-5,5c0,2.8,2.2,5,5,5C79.3,53.2,81.5,51,81.5,48.2" />
                <path className="st0" d="M24.8,48.2c0-2.8-2.3-5-5-5s-5,2.2-5,5c0,2.8,2.2,5,5,5S24.8,51,24.8,48.2" />
                <path className="st0" d="M10.7,48.2c0-2.8-2.3-5-5-5s-5,2.2-5,5c0,2.8,2.2,5,5,5C8.4,53.2,10.7,51,10.7,48.2" />
                <path className="st0" d="M109.9,48.2c0-2.8-2.3-5-5-5c-2.8,0-5,2.2-5,5c0,2.8,2.2,5,5,5C107.6,53.2,109.9,51,109.9,48.2" />
                <path className="st0" d="M95.7,48.2c0-2.8-2.3-5-5-5s-5,2.2-5,5c0,2.8,2.2,5,5,5C93.5,53.2,95.7,51,95.7,48.2" />
                <path className="st0" d="M39,34c0-2.8-2.3-5-5-5c-2.8,0-5,2.2-5,5c0,2.8,2.2,5,5,5C36.8,39,39,36.8,39,34" />
                <path className="st0" d="M53.2,34c0-2.8-2.3-5-5-5s-5,2.2-5,5c0,2.8,2.2,5,5,5C51,39,53.2,36.8,53.2,34" />
                <path className="st0" d="M67.4,34c0-2.8-2.3-5-5-5s-5,2.2-5,5c0,2.8,2.2,5,5,5C65.1,39,67.4,36.8,67.4,34" />
                <path className="st0" d="M81.5,34c0-2.8-2.3-5-5-5s-5,2.2-5,5c0,2.8,2.2,5,5,5C79.3,39,81.5,36.8,81.5,34" />
                <path className="st0" d="M95.7,76.5c0-2.8-2.3-5-5-5s-5,2.3-5,5s2.2,5,5,5C93.5,81.5,95.7,79.3,95.7,76.5" />
                <path className="st0" d="M95.7,62.4c0-2.8-2.3-5-5-5s-5,2.3-5,5s2.2,5,5,5C93.5,67.4,95.7,65.1,95.7,62.4" />
                <path className="st0" d="M95.7,90.7c0-2.8-2.3-5-5-5s-5,2.3-5,5c0,2.8,2.2,5,5,5C93.5,95.7,95.7,93.4,95.7,90.7" />
                <path className="st0" d="M95.7,34c0-2.8-2.3-5-5-5s-5,2.2-5,5c0,2.8,2.2,5,5,5C93.5,39,95.7,36.8,95.7,34" />
                <path className="st0" d="M24.8,34c0-2.8-2.3-5-5-5s-5,2.2-5,5c0,2.8,2.2,5,5,5S24.8,36.8,24.8,34" />
                <path className="st0" d="M39,19.8c0-2.8-2.3-5-5-5c-2.8,0-5,2.3-5,5s2.2,5,5,5C36.8,24.9,39,22.6,39,19.8" />
                <path className="st0" d="M53.2,19.8c0-2.8-2.3-5-5-5s-5,2.3-5,5s2.2,5,5,5C51,24.9,53.2,22.6,53.2,19.8" />
                <path className="st0" d="M67.4,19.8c0-2.8-2.3-5-5-5s-5,2.3-5,5s2.2,5,5,5C65.1,24.9,67.4,22.6,67.4,19.8" />
                <path className="st0" d="M81.5,19.8c0-2.8-2.3-5-5-5s-5,2.3-5,5s2.2,5,5,5C79.3,24.9,81.5,22.6,81.5,19.8" />
                <path className="st0" d="M53.2,5.7c0-2.8-2.3-5-5-5s-5,2.2-5,5c0,2.8,2.2,5,5,5C51,10.7,53.2,8.4,53.2,5.7" />
                <path className="st0" d="M67.4,5.7c0-2.8-2.3-5-5-5s-5,2.2-5,5c0,2.8,2.2,5,5,5C65.1,10.7,67.4,8.4,67.4,5.7" />
            </g>
        </svg>