<?xml version="1.0" encoding="utf-8"?>
<!-- Generator: Adobe Illustrator 25.1.0, SVG Export Plug-In . SVG Version: 6.00 Build 0)  -->
<svg version="1.1" id="Capa_1" xmlns="http://www.w3.org/2000/svg" xmlns:xlink="http://www.w3.org/1999/xlink" x="0px" y="0px"
	 viewBox="0 0 160 138.5" style="enable-background:new 0 0 160 138.5;" xml:space="preserve">
<style type="text/css">
	.st0{fill:#AC1A2F;}
</style>
<g transform="translate(0.000000,248.000000) scale(0.100000,-0.100000)">
	<path class="st0" d="M318.4,2477c-150.7-1.7-232-5.9-239.6-11.9c-22.9-19.5-10.2-44,54.2-110.1l64.3-66.9H889
		c525.8,0,693.4,2.5,701.1,10.2c22,22,9.3,45.7-57.6,112.6l-67.7,67.7H1005C752.7,2478.7,443.7,2477.9,318.4,2477z"/>
	<path class="st0" d="M10.2,2396.6C2.5,2389,0,2246.7,0,1807.3v-579.1l61-62.7c69.4-72,94.8-83.8,118.5-54.2
		c14.4,17.8,15.2,49.1,15.2,590.1V2273l-65.2,66.9C63.5,2407.6,34.7,2421.1,10.2,2396.6z"/>
	<path class="st0" d="M425,2054.5l-18.6-12.7v-397.1v-397.9l20.3-12.7c29.6-19.5,382.7-15.2,394.6,4.2c5.1,7.6,8.5,174.4,8.5,408.1
		c0,348-1.7,396.2-13.5,408.1C796.7,2074.9,453,2074.9,425,2054.5z"/>
	<path class="st0" d="M1058.4,2051.1c-16.1-16.1-16.9-27.9-16.9-197.3c0-165.1,1.7-182,15.2-194.7c13.5-12.7,40.6-14.4,199-14.4
		c154.9,0,184.6,1.7,195.6,13.5c11.9,11,13.5,41.5,13.5,198.1c0,182,0,185.4-18.6,198.1c-16.1,11-49.1,13.5-194.7,13.5
		C1086.3,2068.1,1074.4,2067.2,1058.4,2051.1z"/>
</g>
</svg>
