<?xml version="1.0" encoding="UTF-8"?><svg id="Capa_1" xmlns="http://www.w3.org/2000/svg" viewBox="0 0 193.86 119.03"><defs><style>.cls-1{fill:#ac1a2f;stroke-width:0px;}</style></defs><rect class="cls-1" x="75.66" y="38.09" width="23.84" height="23.82" rx="2.25" ry="2.25"/><rect class="cls-1" x="39.58" y="38.09" width="24.03" height="47.64" rx="2.25" ry="2.25"/><path class="cls-1" d="M28.9,25.51h76.09c2,0,3-2.41,1.6-3.83l-5.7-5.79c-.85-.86-2.01-1.35-3.22-1.34l-75.1.14c-2,0-3,2.42-1.59,3.84l6.32,6.33c.42.42.99.66,1.59.66Z"/><path class="cls-1" d="M17.73,86.82l5.79,5.7c1.42,1.4,3.83.39,3.83-1.6V27.06c0-.6-.24-1.17-.66-1.59l-6.33-6.32c-1.42-1.41-3.84-.41-3.84,1.59l-.14,62.88c0,1.21.48,2.37,1.34,3.22Z"/></svg>